<?xml version="1.0" encoding="UTF-8"?>
<!DOCTYPE svg PUBLIC "-//W3C//DTD SVG 1.1//EN" "http://www.w3.org/Graphics/SVG/1.1/DTD/svg11.dtd">
<svg xmlns="http://www.w3.org/2000/svg" version="1.1" width="102px" height="92px" style="shape-rendering:geometricPrecision; text-rendering:geometricPrecision; image-rendering:optimizeQuality; fill-rule:evenodd; clip-rule:evenodd" xmlns:xlink="http://www.w3.org/1999/xlink">
<g><path style="opacity:1" fill="#fcfdfd" d="M -0.5,-0.5 C 33.5,-0.5 67.5,-0.5 101.5,-0.5C 101.5,14.5 101.5,29.5 101.5,44.5C 99.4328,41.1919 97.2662,37.8586 95,34.5C 92.5773,26.9371 88.7439,20.2704 83.5,14.5C 82.944,11.0626 81.6107,8.06257 79.5,5.5C 79.5,4.83333 79.1667,4.5 78.5,4.5C 78.573,2.97306 77.9063,1.97306 76.5,1.5C 59.5,0.166667 42.5,0.166667 25.5,1.5C 18.9462,11.5899 12.6128,21.9232 6.5,32.5C 4.96386,35.6736 3.63053,39.0069 2.5,42.5C 1.27187,43.3065 0.271873,44.3065 -0.5,45.5C -0.5,30.1667 -0.5,14.8333 -0.5,-0.5 Z"/></g>
<g><path style="opacity:1" fill="#0da3e8" d="M 76.5,1.5 C 77.9063,1.97306 78.573,2.97306 78.5,4.5C 66.7014,6.15953 54.7014,7.15953 42.5,7.5C 37.8189,15.0252 33.3189,22.6919 29,30.5C 28.6667,32.8333 28.3333,35.1667 28,37.5C 21.7777,42.3165 19.1111,40.6498 20,32.5C 22.1584,31.1741 23.9918,29.5075 25.5,27.5C 29.5172,18.9425 33.8505,10.4425 38.5,2C 51.1623,1.50012 63.8289,1.33345 76.5,1.5 Z"/></g>
<g><path style="opacity:1" fill="#42b6e7" d="M 78.5,4.5 C 79.1667,4.5 79.5,4.83333 79.5,5.5C 67.5453,7.47974 55.212,8.1464 42.5,7.5C 54.7014,7.15953 66.7014,6.15953 78.5,4.5 Z"/></g>
<g><path style="opacity:1" fill="#146795" d="M 83.5,14.5 C 88.7439,20.2704 92.5773,26.9371 95,34.5C 97.2662,37.8586 99.4328,41.1919 101.5,44.5C 101.5,46.1667 101.5,47.8333 101.5,49.5C 100.833,50.1667 100.167,50.8333 99.5,51.5C 94.8842,47.9385 92.0509,43.2719 91,37.5C 87.3837,31.7727 83.8837,25.9394 80.5,20C 70.5,19.3333 60.5,19.3333 50.5,20C 44.414,23.606 41.5807,21.7726 42,14.5C 44.3148,10.833 46.8148,10.6663 49.5,14C 60.8284,14.4999 72.1618,14.6665 83.5,14.5 Z"/></g>
<g><path style="opacity:1" fill="#6ebeda" d="M 25.5,1.5 C 42.5,0.166667 59.5,0.166667 76.5,1.5C 63.8289,1.33345 51.1623,1.50012 38.5,2C 33.8505,10.4425 29.5172,18.9425 25.5,27.5C 23.9918,29.5075 22.1584,31.1741 20,32.5C 19.1111,40.6498 21.7777,42.3165 28,37.5C 28.3333,35.1667 28.6667,32.8333 29,30.5C 33.3189,22.6919 37.8189,15.0252 42.5,7.5C 55.212,8.1464 67.5453,7.47974 79.5,5.5C 81.6107,8.06257 82.944,11.0626 83.5,14.5C 72.1618,14.6665 60.8284,14.4999 49.5,14C 46.8148,10.6663 44.3148,10.833 42,14.5C 41.5807,21.7726 44.414,23.606 50.5,20C 60.5,19.3333 70.5,19.3333 80.5,20C 83.8837,25.9394 87.3837,31.7727 91,37.5C 92.0509,43.2719 94.8842,47.9385 99.5,51.5C 97.5287,55.1073 95.862,58.774 94.5,62.5C 90.4455,51.7244 85.2789,41.391 79,31.5C 79.6508,24.7804 76.8175,22.1137 70.5,23.5C 69.3452,26.4459 69.1786,29.4459 70,32.5C 72.1331,33.2551 73.7998,34.5884 75,36.5C 79.3115,44.426 83.8115,52.2593 88.5,60C 82.6884,70.6358 76.6884,81.1358 70.5,91.5C 68.1667,91.5 65.8333,91.5 63.5,91.5C 67.7358,84.9775 71.2358,77.9775 74,70.5C 76.4526,66.9551 79.1193,63.6217 82,60.5C 82.4859,55.0081 79.9859,53.1747 74.5,55C 72.8447,57.5074 72.0114,60.3408 72,63.5C 68.3241,72.1853 64.1574,80.5186 59.5,88.5C 46.9887,88.1714 34.6554,88.5048 22.5,89.5C 19.2461,87.3226 17.2461,84.3226 16.5,80.5C 27.8382,80.3335 39.1716,80.5001 50.5,81C 53.318,84.1286 56.318,84.2953 59.5,81.5C 61.2915,74.2303 58.6248,71.7303 51.5,74C 41.1506,74.8323 30.8172,74.6656 20.5,73.5C 14.479,63.0101 8.47902,52.6767 2.5,42.5C 3.63053,39.0069 4.96386,35.6736 6.5,32.5C 7.86147,38.5977 10.6948,43.9311 15,48.5C 17.2999,52.8135 19.6333,57.1468 22,61.5C 22.3333,63.8333 22.6667,66.1667 23,68.5C 28.5383,73.1833 31.5383,71.85 32,64.5C 28.0864,62.7542 25.9197,59.7542 25.5,55.5C 20.9289,48.7004 16.5956,41.7004 12.5,34.5C 19.0395,24.0826 25.0395,13.4159 30.5,2.5C 28.9547,1.54811 27.288,1.21478 25.5,1.5 Z"/></g>
<g><path style="opacity:1" fill="#16a5e8" d="M 94.5,62.5 C 89.4273,72.3122 84.094,81.9789 78.5,91.5C 75.8333,91.5 73.1667,91.5 70.5,91.5C 76.6884,81.1358 82.6884,70.6358 88.5,60C 83.8115,52.2593 79.3115,44.426 75,36.5C 73.7998,34.5884 72.1331,33.2551 70,32.5C 69.1786,29.4459 69.3452,26.4459 70.5,23.5C 76.8175,22.1137 79.6508,24.7804 79,31.5C 85.2789,41.391 90.4455,51.7244 94.5,62.5 Z"/></g>
<g><path style="opacity:1" fill="#18a4e8" d="M 2.5,42.5 C 8.47902,52.6767 14.479,63.0101 20.5,73.5C 30.8172,74.6656 41.1506,74.8323 51.5,74C 58.6248,71.7303 61.2915,74.2303 59.5,81.5C 56.318,84.2953 53.318,84.1286 50.5,81C 39.1716,80.5001 27.8382,80.3335 16.5,80.5C 11.2706,71.0438 6.27063,61.3771 1.5,51.5C 1.04311,50.7025 0.376442,50.3691 -0.5,50.5C -0.5,48.8333 -0.5,47.1667 -0.5,45.5C 0.271873,44.3065 1.27187,43.3065 2.5,42.5 Z"/></g>
<g><path style="opacity:1" fill="#fbfdfe" d="M -0.5,50.5 C 0.376442,50.3691 1.04311,50.7025 1.5,51.5C 6.27063,61.3771 11.2706,71.0438 16.5,80.5C 17.2461,84.3226 19.2461,87.3226 22.5,89.5C 22.8333,90.1667 23.1667,90.8333 23.5,91.5C 15.5,91.5 7.5,91.5 -0.5,91.5C -0.5,77.8333 -0.5,64.1667 -0.5,50.5 Z"/></g>
<g><path style="opacity:1" fill="#fbfdfe" d="M 101.5,49.5 C 101.5,63.5 101.5,77.5 101.5,91.5C 93.8333,91.5 86.1667,91.5 78.5,91.5C 84.094,81.9789 89.4273,72.3122 94.5,62.5C 95.862,58.774 97.5287,55.1073 99.5,51.5C 100.167,50.8333 100.833,50.1667 101.5,49.5 Z"/></g>
<g><path style="opacity:1" fill="#136997" d="M 25.5,1.5 C 27.288,1.21478 28.9547,1.54811 30.5,2.5C 25.0395,13.4159 19.0395,24.0826 12.5,34.5C 16.5956,41.7004 20.9289,48.7004 25.5,55.5C 25.9197,59.7542 28.0864,62.7542 32,64.5C 31.5383,71.85 28.5383,73.1833 23,68.5C 22.6667,66.1667 22.3333,63.8333 22,61.5C 19.6333,57.1468 17.2999,52.8135 15,48.5C 10.6948,43.9311 7.86147,38.5977 6.5,32.5C 12.6128,21.9232 18.9462,11.5899 25.5,1.5 Z"/></g>
<g><path style="opacity:1" fill="#0f6795" d="M 63.5,91.5 C 50.1667,91.5 36.8333,91.5 23.5,91.5C 23.1667,90.8333 22.8333,90.1667 22.5,89.5C 34.6554,88.5048 46.9887,88.1714 59.5,88.5C 64.1574,80.5186 68.3241,72.1853 72,63.5C 72.0114,60.3408 72.8447,57.5074 74.5,55C 79.9859,53.1747 82.4859,55.0081 82,60.5C 79.1193,63.6217 76.4526,66.9551 74,70.5C 71.2358,77.9775 67.7358,84.9775 63.5,91.5 Z"/></g>
</svg>
